<?xml version="1.0" encoding="utf-8" ?>
<svg baseProfile="full" height="200mm" version="1.1" viewBox="0,0,200,200" width="200mm" xmlns="http://www.w3.org/2000/svg" xmlns:ev="http://www.w3.org/2001/xml-events" xmlns:xlink="http://www.w3.org/1999/xlink"><defs /><rect fill="#1a1a1a" height="200" width="200" x="0" y="0" /><text alignment-baseline="middle" fill="#e1ed5e" style="dominant-baseline: central; font-size:9.0px; font-family:Arial;" text-anchor="middle" x="100.0" y="100.0">2018</text><line stroke="#e1ed5e" stroke-width="0.3" x1="100.0" x2="100.0" y1="15.0" y2="10.0" /><path d="M 100.0 14.0 a86.0,86.0 0 0,1 42.46469731375804,11.215312516191453" fill="none" id="id1" stroke="none" /><text fill="#e1ed5e" style="font-size:6.75px; font-family:Arial;" text-anchor="middle"><textPath startOffset="22.20632615414155" xlink:href="#id1">January</textPath></text><line stroke="#e1ed5e" stroke-width="0.3" x1="143.23703022742887" x2="145.7803849466894" y1="26.81831364943548" y2="22.513508569990506" /><path d="M 143.74570117128098 25.957352633546492 a86.0,86.0 0 0,1 28.547481713284135,27.462654790039103" fill="none" id="id2" stroke="none" /><text fill="#e1ed5e" style="font-size:6.75px; font-family:Arial;" text-anchor="middle"><textPath startOffset="19.985693538727396" xlink:href="#id2">February</textPath></text><line stroke="#e1ed5e" stroke-width="0.3" x1="172.23445277983987" x2="176.4835382374775" y1="55.19839476539836" y2="52.563006222186495" /><path d="M 173.08426987136738 54.67131705675599 a86.0,86.0 0 0,1 12.851231095245387,41.99856678651699" fill="none" id="id3" stroke="none" /><text fill="#e1ed5e" style="font-size:6.75px; font-family:Arial;" text-anchor="middle"><textPath startOffset="22.20632615414155" xlink:href="#id3">March</textPath></text><path d="M 118.21658344932153 89.55222093294921 l 31.052572622016786 -17.809619411946578 a56.79727377949347,56.79727377949347 0 0,0 0.4791049069266154,0.8522741694603116 l -31.354535170235835 17.272461732551474" fill="#92ff23" stroke="none" /><path d="M 120.18372546131832 94.20196356495316 l 31.79639232492833 -9.133925327922933 a54.08230881871508,54.08230881871508 0 0,0 0.24932776056986033,0.8969646117411427 l -31.948906856064553 8.585249412762838" fill="#b7ff1f" stroke="none" /><path d="M 120.6074358757038 95.95851677861258 l 61.3873445528047 -12.039145700227303 a83.55675103804595,83.55675103804595 0 0,0 0.26465318132093996,1.4137878771343089 l -61.5854834580355 10.98067974563043" fill="#4cd7ff" stroke="none" /><path d="M 120.78858239683441 97.02765380044208 l 31.22678447709758 -4.46479766600385 a52.54435745069878,52.54435745069878 0 0,0 0.12031156824594248,0.8964609286944413 l -31.29901204440136 3.9266183952447444" fill="#cdff1d" stroke="none" /><path d="M 120.98425023603335 99.18683210126433 l 62.44102763185171 -2.419673739264684 a83.48789284914443,83.48789284914443 0 0,0 0.04328769936170715,1.4365080007132776 l -62.47342702566906 1.3444955911264074" fill="#4cd8ff" stroke="none" /><line stroke="#e1ed5e" stroke-width="0.3" x1="184.98032266829074" x2="189.97916517819016" y1="98.17113171792111" y2="98.06355123074" /><path d="M 185.9800911702706 98.14961562048488 a86.0,86.0 0 0,1 -9.607161424134198,41.387399972396054" fill="none" id="id4" stroke="none" /><text fill="#e1ed5e" style="font-size:6.75px; font-family:Arial;" text-anchor="middle"><textPath startOffset="21.466115282336823" xlink:href="#id4">April</textPath></text><path d="M 120.49622156327973 104.57218783832717 l 61.488664689839204 13.716563514981502 a84.0,84.0 0 0,0 -0.3269577362777887,1.4085253706057403 l -61.24344638763086 -14.772957542935806" fill="#4dd2ff" stroke="none" /><path d="M 120.23288151984713 105.62410040840565 l 32.39760960706291 9.005509632610467 a54.62594700517288,54.62594700517288 0 0,0 -0.25962246324695143,0.9037798538300088 l -32.237794506929866 -9.561846961945058" fill="#afff20" stroke="none" /><path d="M 118.81262510543309 109.33194174019688 l 33.98888946411482 16.860078511930197 a58.94083360223212,58.94083360223212 0 0,0 -0.45867568719918783,0.9050106454177171 l -33.69363510712937 -17.44264336905061" fill="#76ff27" stroke="none" /><line stroke="#e1ed5e" stroke-width="0.3" x1="174.80103733775053" x2="179.2010983576182" y1="140.37084112569926" y2="142.7455964860345" /><path d="M 175.68104954172406 140.8457921977663 a86.0,86.0 0 0,1 -30.038265399797805,32.042727171017184" fill="none" id="id5" stroke="none" /><text fill="#e1ed5e" style="font-size:6.75px; font-family:Arial;" text-anchor="middle"><textPath startOffset="22.206326154141568" xlink:href="#id5">May</textPath></text><line stroke="#e1ed5e" stroke-width="0.3" x1="143.8653032363475" x2="146.44561519142675" y1="172.8068346515853" y2="177.08958963109032" /><path d="M 144.38136562736335 173.6633856474863 a86.0,86.0 0 0,1 -40.68145358897372,12.25698825130547" fill="none" id="id6" stroke="none" /><text fill="#e1ed5e" style="font-size:6.75px; font-family:Arial;" text-anchor="middle"><textPath startOffset="21.466115282336833" xlink:href="#id6">June</textPath></text><path d="M 106.57524785965236 119.94407469862006 l 3.9463731421285777 11.970158755262736 a33.603910567879595,33.603910567879595 0 0,0 -0.5509099585711391,0.17638397157138908 l -3.7397418384664984 -12.036315573493832" fill="#ff0000" stroke="none" /><path d="M 105.53697534728816 120.25689768951611 l 10.24554976193145 37.48310951067171 a59.85813670923017,59.85813670923017 0 0,0 -0.9962376597796138,0.26311542061098314 l -9.598821659340338 -37.65391628058628" fill="#6aff28" stroke="none" /><line stroke="#e1ed5e" stroke-width="0.3" x1="102.19456741930631" x2="102.32365962044197" y1="184.97166512339345" y2="189.96999836594603" /><path d="M 102.22038585953345 185.97133177190398 a86.0,86.0 0 0,1 -42.740103519485714,-10.115201625700543" fill="none" id="id7" stroke="none" /><text fill="#e1ed5e" style="font-size:6.75px; font-family:Arial;" text-anchor="middle"><textPath startOffset="22.20632615414155" xlink:href="#id7">July</textPath></text><line stroke="#e1ed5e" stroke-width="0.3" x1="58.666819895761336" x2="56.23545636021788" y1="174.27360380694188" y2="178.64263932499728" /><path d="M 58.180547188652646 175.14741091055294 a86.0,86.0 0 0,1 -31.652253787137756,-30.449443065178592" fill="none" id="id8" stroke="none" /><text fill="#e1ed5e" style="font-size:6.75px; font-family:Arial;" text-anchor="middle"><textPath startOffset="22.20632615414155" xlink:href="#id8">August</textPath></text><path d="M 84.67929136418377 114.36230785411682 l -24.55963053537495 23.023280640414754 a54.663732762149515,54.663732762149515 0 0,0 -0.6376227472595274,-0.6920135601281954 l 24.95229969063021 -22.597115825485215" fill="#afff20" stroke="none" /><line stroke="#e1ed5e" stroke-width="0.3" x1="26.63291911575756" x2="22.317208475507996" y1="142.92168965132927" y2="145.44649492493687" /><path d="M 25.769776987707644 143.4266507060508 a86.0,86.0 0 0,1 -11.730757126820373,-40.83630448921669" fill="none" id="id9" stroke="none" /><text fill="#e1ed5e" style="font-size:6.75px; font-family:Arial;" text-anchor="middle"><textPath startOffset="21.46611528233685" xlink:href="#id9">September</textPath></text><line stroke="#e1ed5e" stroke-width="0.3" x1="15.007084014347285" x2="10.007500721073583" y1="101.09737516637583" y2="101.16192664675087" /><path d="M 14.007167355692545 101.11028546245083 a86.0,86.0 0 0,1 10.666146001902534,-42.60595125391555" fill="none" id="id10" stroke="none" /><text fill="#e1ed5e" style="font-size:6.75px; font-family:Arial;" text-anchor="middle"><textPath startOffset="22.20632615414155" xlink:href="#id10">October</textPath></text><line stroke="#e1ed5e" stroke-width="0.3" x1="26.266209847984243" x2="21.928928074336255" y1="57.711370442889674" y2="55.22380399835377" /><path d="M 25.398753493254645 57.213857153982495 a86.0,86.0 0 0,1 29.58750427330803,-30.492523968695096" fill="none" id="id11" stroke="none" /><text fill="#e1ed5e" style="font-size:6.75px; font-family:Arial;" text-anchor="middle"><textPath startOffset="21.46611528233685" xlink:href="#id11">November</textPath></text><path d="M 85.05521093208273 85.24692304244772 l -14.346880533501086 -14.162838408066447 a41.15983563463637,41.15983563463637 0 0,0 0.502079826694835,-0.4999237363585639 l 14.100964906638938 14.407697995075122" fill="#ff820c" stroke="none" /><line stroke="#e1ed5e" stroke-width="0.3" x1="56.762969772571076" x2="54.21961505331055" y1="26.818313649435495" y2="22.513508569990535" /><path d="M 56.25429882871897 25.957352633546506 a86.0,86.0 0 0,1 42.265352541879196,-11.944610805530505" fill="none" id="id12" stroke="none" /><text fill="#e1ed5e" style="font-size:6.75px; font-family:Arial;" text-anchor="middle"><textPath startOffset="22.20632615414155" xlink:href="#id12">December</textPath></text></svg>
