<?xml version="1.0" encoding="utf-8" ?>
<svg baseProfile="full" height="300mm" version="1.1" viewBox="0,0,200,300" width="200mm" xmlns="http://www.w3.org/2000/svg" xmlns:ev="http://www.w3.org/2001/xml-events" xmlns:xlink="http://www.w3.org/1999/xlink"><defs /><rect fill="#222222" height="300" width="200" x="0" y="0" /><text fill="#FFFFFF" style="font-size:12px; font-family:Arial; font-weight:bold;" x="10" y="20">Over 5km Runs</text><text fill="#FFFFFF" style="font-size:4px; font-family:Arial" x="10" y="280">ATHLETE</text><text fill="#FFFFFF" style="font-size:9px; font-family:Arial" x="10" y="290">danyue</text><text fill="#FFFFFF" style="font-size:4px; font-family:Arial" x="120" y="280">STATISTICS</text><text fill="#FFFFFF" style="font-size:3px; font-family:Arial" x="120" y="285">Number: 10</text><text fill="#FFFFFF" style="font-size:3px; font-family:Arial" x="120" y="290">Weekly: 1.0</text><text fill="#FFFFFF" style="font-size:3px; font-family:Arial" x="141" y="285">Total: 71.9 km</text><text fill="#FFFFFF" style="font-size:3px; font-family:Arial" x="141" y="290">Avg: 7.2 km</text><text fill="#FFFFFF" style="font-size:3px; font-family:Arial" x="167" y="285">Min: 5.1 km</text><text fill="#FFFFFF" style="font-size:3px; font-family:Arial" x="167" y="290">Max: 9.9 km</text><polyline fill="none" points="48.884668581711594,85.10154196515214 50.81576549721649,85.12052664507064 52.633268476463854,84.64590904324723 52.34116978337988,84.03839667810826 52.746862412721384,83.81057901006716 52.43853601440787,82.67148632403405 51.10786419030046,80.2413977192482 50.73462697130162,78.03910144638212 50.60480532993097,74.24197532093967 50.18288499547634,73.25470934344048 49.51754908350995,69.91315334899991 49.30658891616622,69.51444080028159 47.60267987311818,69.30559101584367 42.37735880771652,69.68531771560083 42.052804704231676,69.38153642014368 44.146178671508096,61.027348873743904 45.26589032827178,58.10329116230423 45.054930161102675,56.85010895575397 45.76894918869948,55.16019785092794 46.49919592140941,51.95122163364431 46.20709722832544,49.216900662577245 45.639127547328826,47.31804208784888 45.20097950764466,46.7293918406358 45.233434917987324,45.60905215247476 44.50318818521919,44.336793497379404 44.51941589044873,43.29239530721679 43.75671374727972,41.71629195865535 43.05892242491245,39.1527207296167 42.994011604227126,37.86142650472175 43.59443669562461,33.79758683897671 41.89052765251836,33.0 41.32255797146354,34.65214022299915 39.326550235331524,45.74197417696996 37.78491824393859,51.28663357197365 35.98364296986256,52.17907982984616 33.50080407853238,52.38794958825747 33.11133915442042,52.78670026875625 32.34863701130962,52.95759314572206 30.644727968261577,52.938605056348024 29.62238254240947,53.35634255765763 27.17199906136375,53.62217500565748 26.63648479076801,53.96395900177595 26.668940201052465,55.426027621055255 27.139543651079293,59.75519976277428 28.827224988956004,69.97011221206049 28.61626482172869,71.92568885757646 28.89213580969954,73.15977963576734 29.395194670010824,73.61544177381438 29.81711500446545,74.88749244097562 30.709638788946904,81.22862519063347 31.196469944145065,81.19065500388388 31.439885521656834,81.76020696024352 32.52714176819427,81.7412219242251 33.17624997510575,81.51340133484337 38.661214323248714,81.41847600373148 46.80752231966471,80.56414576036332 47.08339330757735,80.98181883283542 46.564106742152944,81.45644614221237 45.882543124840595,81.58934156346368 46.14218640769832,83.60174589308735 47.86232315591769,83.22204869329289 48.21933266968699,82.67148632403405 48.819757761084475,82.36772705113981 49.14431186451111,82.5955465540901 50.215340405819006,82.13990725854819 50.62103303516051,82.27280217279622 51.18900271621533,82.9752450818196 52.04907109029591,83.01321489035035 52.13020961615257,83.73463972298487 53.36351520923199,86.2216346389323 53.26614897814579,86.6203100024286 52.81177323340671,86.75320159309194 51.01049795921426,86.60132548143156 48.073283323145006,87.0 47.94346168177435,86.05077349729254 47.63513528340263,85.86092759319581 46.239552638609894,86.14569637386012 46.2882357541821,84.77880209847353" stroke="#4dd2ff" stroke-linecap="round" stroke-linejoin="round" stroke-width="0.5"><title>2019-08-23 9.7km</title></polyline><polyline fill="none" points="95.73062382708304,81.7718493686989 93.19568172446452,83.72265618224628 82.92249530856498,87.0 80.78780722222291,80.75742778420681 81.72173325996846,79.352841745771 85.59085541660897,79.27480910945451 90.72744862455875,74.04660365503514 99.59974598349072,71.62757066520862 104.40279417810962,68.89639483997598 104.5362121835351,63.35597848962061 97.79860291071236,41.97426270582946 107.73824431328103,36.90186678501777 119.278901780257,33.15607506822562 117.27763169957325,35.10701063100714 114.27572657796554,35.57523439725628 107.07115428615361,39.399050680338405 109.73951439419761,48.13912764698034 112.00762048596516,49.0755583140417 114.54256258858368,46.57840722310357 111.80749347782694,38.85279242671095 109.53938738605939,37.448126485571265 107.27128129429184,38.930829344841186 107.33799029700458,42.05229929339839 110.20647741295397,48.2171635813429 111.60736646968871,48.76341489062179 113.942181564169,47.51483987423126 114.14230857230723,44.47142940532649 111.20711245341226,38.618681622552685 109.73951439419761,37.60420061129844 108.005080324132,38.1504597911844 106.87102727801539,41.428006361820735 110.00635040504858,48.37323542532977 112.0743294886779,48.6073431292898 114.20901757501997,46.42233499872964 113.34180053998716,41.66211627336452 111.74078447488137,38.540644671418704 109.80622339691035,37.448126485571265 106.93773628072813,40.02334533154499 109.60609638877213,47.90501979412511 110.87356744008139,48.919486618891824 114.27572657796554,47.12465974758379 113.27509153750725,40.179418911691755 109.13913336978294,37.76027470419649 107.07115428615361,40.56960271735443 109.07242436730303,46.812515497382265 110.94027644279413,48.919486618891824 112.5412925076671,48.76341489062179 114.80939859943464,44.23732038674643 113.47521854517981,42.67659169569379 113.34180053998716,36.1995322892908 120.54637283179909,34.2485996200121 117.87801272375509,33.0 115.14294361276552,34.8728986363858 97.66518490528688,40.881749612803105 105.33672021585517,64.52649245777866 86.39136344892904,72.7200381604489 79.45362716820091,76.85579328751191 82.92249530856498,86.92196817387594 92.59530070004985,83.95675265265163 93.66264474345371,82.16201114468277 96.59784086211585,80.75742778420681" stroke="#4dd2ff" stroke-linecap="round" stroke-linejoin="round" stroke-width="0.5"><title>2018-08-19 5.2km</title></polyline><polyline fill="none" points="169.26584648620337,40.42152566451114 170.6849400922656,49.69834871444618 173.7735555875115,52.7255023480393 178.11431250022724,52.2372524344828 176.77869498869404,39.93326923326822 172.60489026503637,38.663801302260254 169.0988942971453,40.81213062320603 169.5997508643195,45.499377215630375 173.60660339845344,52.5302024136181 178.44821687834337,51.0654515864444 177.7804081221111,43.54636069899425 174.60831653233618,39.249709795520175 171.10232056491077,39.054407006071415 169.3493225807324,40.61682816431858 172.0205576037988,51.0654515864444 174.85874481592327,52.7255023480393 178.36474078381434,50.284250193682965 178.03083640616387,43.058105923002586 176.4447906105779,40.61682816431858 174.77526872092858,39.15205840591807 171.01884446991608,38.95675559528172 168.9319421085529,42.96045493695419 172.4379380759783,51.65135219669901 177.36302764946595,52.5302024136181 179.1160256336443,46.9641368878074 175.860457949806,40.128571836976334 172.8553185481578,38.56614985066699 170.6849400922656,38.95675559528172 169.3493225807324,43.058105923002586 172.18750979285687,51.35840193822514 174.9422209104523,52.7255023480393 178.19778859475628,50.87015130050713 176.86217108322307,41.886293405725155 173.18922292627394,38.37084691610653 169.0988942971453,41.10508423374267 172.60489026503637,51.456052034918685 175.860457949806,53.2137520032702 178.6986451614648,48.42889423208544 174.60831653233618,40.128571836976334 172.0205576037988,38.76145274355076 170.10060743102804,39.93326923326822 169.85017914744094,44.71817110560369 172.4379380759783,52.04195239651017 177.02912327228114,52.13960242073517 178.36474078381434,48.23359338758746 174.2744121546857,39.835617916309275 171.01884446991608,39.347361174819525 169.0988942971453,42.667501916352194 172.4379380759783,51.94430236215703 175.10917309951037,53.311401903047226 177.19607546087354,52.5302024136181 178.53169297240674,50.967801448656246 178.78212125599384,46.76883573277155 176.86217108322307,41.30038658872945 172.9387946431525,38.37084691610653 169.18237039214,41.00743304047501 171.93708150926977,51.35840193822514 176.0274101383984,52.82315229991218 178.11431250022724,51.35840193822514 178.61516906693578,48.03829250129638 176.19436232745647,40.030920540273655 171.7701293202117,38.859104174771346 169.0988942971453,42.96045493695419 172.521414170973,51.55370212090202 176.695218894165,52.82315229991218 178.53169297240674,48.42889423208544 174.2744121546857,39.249709795520175 173.02227073768154,38.37084691610653 170.9353683758527,39.4450125436415 169.3493225807324,43.058105923002586 172.60489026503637,52.04195239651017 174.4413643432781,52.92080224107485 177.36302764946595,52.13960242073517 178.61516906693578,50.577200793719385 178.11431250022724,47.94064204284223 174.52484043780714,39.4450125436415 171.01884446991608,38.95675559528172 169.18237039214,41.2027354160673 170.10060743102804,47.94064204284223 169.26584648620337,41.00743304047501 184.9593522469513,33.0 160.83476094482467,41.690991174895316 155.1583865210414,45.40172648819862 163.339043778833,74.6964807996992 135.0406477530487,87.0" stroke="#4dd2ff" stroke-linecap="round" stroke-linejoin="round" stroke-width="0.5"><title>2018-06-17 6.0km</title></polyline><polyline fill="none" points="28.491944479756057,145.01702078152448 24.058246035594493,146.92373166960897 22.493411290924996,144.78821513586445 21.84139681351371,138.9917811905034 44.07509048166685,129.38180105190258 44.98791074985638,126.559798395494 43.74908324307762,118.70389491092646 37.94615439721383,102.45791967300465 58.02820029086433,93.0 59.527833588188514,93.6101921153604 58.41940897703171,95.13567014143337 49.226004850585014,98.49171042110538 47.139558523893356,100.398544519383 49.486810641596094,107.64446803438477 51.83406275883317,109.16991632431746 53.464098951313645,108.48346499388572 54.1161134284921,104.74610737949843 51.442854072665796,99.02562447765376 49.226004850585014,98.03406948590418 47.26996141904965,99.48326478234958 46.81355128553696,101.16127674467862 49.160803402774036,107.72074052575044 52.42087578843348,109.0173716408899 53.92050908552483,107.94955795118585 54.442120667081326,105.66138042585226 52.02966710203327,99.63581148622325 49.943220775341615,98.11034299543826 47.00915562850423,99.63581148622325 49.35640774574131,107.64446803438477 52.61648013140075,108.7122821767698 54.05091198091395,107.79701300896704 54.63772501028143,104.82238017773489 51.76886131102219,98.72053077968303 49.682414984563366,97.8815224430873 48.05237879185006,98.56798388191964 46.87875273334794,101.46636940835742 50.07362367073074,108.25464773824206 53.65970329451375,108.55973739625188 54.3117177716922,105.28001679788576 50.986443938687444,98.64425733487587 48.24798313481733,98.64425733487587 47.53076721006073,102.6867387710372 49.61721353698522,108.25464773824206 53.52930039935745,108.9410992868361 54.702926457859576,106.27156181033934 51.964465654222295,98.72053077968303 49.61721353698522,97.95779596851207 47.07435707631521,99.86463148117764 49.160803402774036,107.33937798877014 52.09486854961142,108.78855455480516 54.3117177716922,105.8139258204028 51.50805552024394,98.87307764490834 48.76959471637383,98.18661649659043 47.26996141904965,99.40699141850928 47.85677444864996,105.35628953977721 50.725638147909194,109.47500559437321 53.33369605615735,108.63600979041075 54.76812790567055,106.19528916548006 52.87728592194617,96.66114493523492 58.15860318648629,94.7543009382207 59.07142345421016,93.22882210410899 40.097802171483636,100.16972469433676 38.27216163580306,101.46636940835742 38.92417611274868,106.04274385160534 40.94542099186219,109.55127789173275 44.98791074985638,124.72930427186657 20.472166412044317,135.94100774038816 20.928576545789838,140.822239056346 23.66703734965995,147.0 33.18644871469587,142.95776735182153" stroke="#4dd2ff" stroke-linecap="round" stroke-linejoin="round" stroke-width="0.5"><title>2018-04-29 5.9km</title></polyline><polyline fill="none" points="99.30656990082934,139.1976720172679 98.31595547357574,140.81994510476943 95.74035796243697,141.43795295088785 92.96663756622002,143.75547770946287 83.12653425475582,147.0 80.81510059093125,140.2019367350149 84.24923060555011,137.3436412132578 103.995478190016,129.07769652904244 104.52380588487722,124.13353530527093 97.25930008431897,102.42518075084081 101.61800356465392,99.4894817766035 119.18489940930158,93.0 106.96732147177681,99.18046014412539 106.70315762492828,102.03890524525195 109.34479609783739,107.52399824908935 112.64684418868273,108.29654324479634 114.03370438702404,106.51968853105791 111.59018879965879,99.2577155646286 108.61834551766515,97.9443723061122 106.63711666292511,100.03026931756176 108.94855032674968,106.98321626510005 111.12790206656791,108.373797699227 113.10913092154078,107.75576183368685 114.03370438702404,105.5926321791485 111.78831168520264,100.18477996997535 109.54291898338124,97.7898611787823 106.76919858669862,99.10320471558953 109.14667321229354,107.21498002164299 110.79769725771621,108.60556101391558 113.9676634252537,106.59694317379035 112.25059841782786,100.88007750065299 109.27875513583422,97.71260560309747 106.70315762492828,99.56673716387013 108.94855032674968,106.90596166311298 111.12790206656791,108.52830658387393 114.09974534879439,106.59694317379035 110.99582014326006,98.40790549089434 108.5523045558948,97.7898611787823 106.76919858669862,100.03026931756176 109.67500090668909,107.75576183368685 112.11851649405435,108.21928878204199 114.16578631056473,106.36517922068015 111.85435264697298,99.18046014412539 110.79769725771621,98.02162785734981 108.1560587848071,97.9443723061122 106.50503473938443,100.64831173059065 109.14667321229354,107.13772544416133 111.78831168520264,108.76006984949345 113.90162246325053,107.06047085876344 114.29786823433824,105.3608679069439 111.92039360874332,99.10320471558953 109.41083705960773,97.63535001891432 107.42960820486769,98.4851609931211 106.63711666292511,100.33929058973445 108.88250936474651,106.98321626510005 112.18455745605752,108.45105214574141 113.50537669239566,107.75576183368685 114.29786823433824,105.2836131330696 111.45810687565245,98.7169274504995 108.5523045558948,97.9443723061122 106.90128051047213,99.8757586326683 108.42022263235413,105.82439637737116 111.25998399034142,108.52830658387393 114.2318272725679,106.90596166311298 111.9864345707465,99.2577155646286 111.12790206656791,98.02162785734981 108.5523045558948,97.86711674678372 106.5710757013876,100.49380117660621 108.816468403209,107.21498002164299 112.11851649405435,108.373797699227 113.9676634252537,106.98321626510005 114.09974534879439,104.89733914175304 111.72227072319947,98.33064998063492" stroke="#4dd2ff" stroke-linecap="round" stroke-linejoin="round" stroke-width="0.5"><title>2018-04-18 5.2km</title></polyline><polyline fill="none" points="156.24104259861633,141.3687584368745 153.07560478663072,143.6058322157478 143.51334472955205,147.0 141.073319749441,138.66883265582146 147.47014199453406,135.1203435496427 164.22058374946937,129.02615887054708 163.36327767535113,129.10330076760147 164.28653037035838,122.70049551752163 157.2302419145126,102.25742724828888 158.68106757849455,100.2516613319749 178.92668025079183,93.0 178.39910728204995,94.2343304331298 167.91359453019686,98.16874472470954 166.72655535046943,99.78879148967098 169.496313435724,107.34896206983831 172.52985800569877,108.19754774583271 173.84879042766988,105.88322084612446 171.47471206868067,99.09448617446469 169.43036681506783,97.78301877324702 166.72655535046943,99.09448617446469 169.03468708856963,106.65466396335978 172.06823165831156,108.50612410996109 173.9147370485589,106.500375405245 171.60660531069152,98.70876071363455 168.8368472252041,97.4744378651958 167.05628845607862,98.86305092263501 166.59466210845858,100.8688206638326 169.2325269517023,107.96611538680736 172.8595911115408,108.19754774583271 173.58500394341536,104.10889857518487 170.3536195103079,98.01445436879294 167.451968182344,99.17163124220679 167.18818169808947,102.797440204944 169.2325269517023,107.96611538680736 172.7276978690643,107.96611538680736 173.98068366968073,105.80607648933074 171.408765447326,98.86305092263501 169.03468708856963,97.70587355858879 166.66060872958042,99.94308146974072 168.4411674987059,107.0403852154268 171.34281882597134,108.89184438140364 174.04663029056974,107.19467365910532 174.17852353281341,105.80607648933074 171.8044451738242,99.48021143156802 168.90279384632595,97.86016398022184 166.99034183495678,99.86593648395501 169.2325269517023,107.19467365910532 171.67255193181336,108.66041224304354 173.58500394341536,107.19467365910532 173.84879042766988,105.49749898113078 171.27687220531516,98.63161559676519 168.0454877722077,98.16874472470954 166.59466210845858,101.17740013363073 169.16658033058047,107.34896206983831 170.1557796469424,108.27469184913207 172.52985800569877,108.19754774583271 173.65095056407154,105.34321017790353 171.60660531069152,98.55447047180496 170.02388640469871,97.55158310441766 167.25412831897847,98.16874472470954 166.59466210845858,100.63738597545307 169.56226005707867,108.04325951467035 172.33201814233325,108.96898841118673 173.7828438063152,107.58039462508168 173.98068366968073,105.26606576389167 171.7384985529352,99.24877630191622 168.17738101445138,97.93730917858193 166.66060872958042,100.56024106318364 169.16658033058047,107.58039462508168 171.2109255839605,108.81470034347149 173.58500394341536,107.50325044826604 174.04663029056974,105.72893212456256 170.8152458574623,97.93730917858193 168.30927425669506,97.93730917858193 166.3968222453259,100.48309614264872 169.29847357282415,108.35183594416594 171.93633841583505,108.73755629750667 173.7828438063152,105.88322084612446 171.60660531069152,99.09448617446469 168.30927425669506,97.86016398022184 166.52871548733674,99.94308146974072 169.29847357282415,107.81182710663415 171.93633841583505,108.89184438140364 173.9147370485589,106.11465386720374 170.74929923657328,98.70876071363455 167.51791480369866,98.09159955085488 166.66060872958042,100.56024106318364 169.496313435724,107.34896206983831 171.47471206868067,108.66041224304354 172.92553773219697,108.19754774583271 174.04663029056974,106.03750953497365 171.60660531069152,99.24877630191622 170.61740599456243,98.09159955085488 168.2433276353404,97.93730917858193 166.59466210845858,100.17451637855265 169.2325269517023,107.65753879392287 171.0130857208278,108.81470034347149 172.59580462705344,108.42898003122536 174.1125769119244,105.9603651947109 171.60660531069152,97.78301877324702 167.91359453019686,97.78301877324702 166.26492900284939,99.71164648741251 168.57306074071676,106.88609673903557 170.48551275208592,108.89184438140364 172.33201814233325,108.89184438140364 174.1125769119244,105.574643370579 171.7384985529352,98.24588989064796 166.85844859248027,98.32303504832089 166.26492900284939,100.71453088003909 169.29847357282415,107.96611538680736 171.87039179517888,108.81470034347149 173.9147370485589,107.19467365910532 174.1125769119244,105.34321017790353 171.408765447326,98.16874472470954 166.92439521383494,98.40018019761192 166.46276886644773,101.40883465035586 169.496313435724,108.12040363426786 172.92553773219697,108.50612410996109 174.1125769119244,105.03463247348554 170.88119247881696,97.86016398022184 166.99034183495678,98.63161559676519 166.46276886644773,101.56312428700039 169.36442019371316,108.04325951467035 172.7276978690643,108.50612410996109 174.24447015393525,105.49749898113078 171.7384985529352,98.70876071363455 168.50711411982775,97.78301877324702 165.93519589770585,100.02022644749377 168.0454877722077,106.42323111387668 170.61740599456243,109.12327644618927 172.26607152167708,109.12327644618927 174.24447015393525,107.65753879392287 172.7276978690643,100.02022644749377 169.496313435724,97.62872833549045 167.05628845607862,98.40018019761192 166.26492900284939,99.86593648395501 168.50711411982775,106.96324098139303 171.14497896307148,109.2775644485373 172.8595911115408,108.81470034347149 174.3104167750571,106.73180823004805 172.66175124817528,100.40595121402293 171.408765447326,98.32303504832089 169.496313435724,98.01445436879294 166.00114251859486,100.02022644749377 168.90279384632595,107.81182710663415 170.61740599456243,109.20042045135051 172.8595911115408,108.96898841118673 174.37636339617893,106.11465386720374 172.46391138457693,99.09448617446469" stroke="#4dd2ff" stroke-linecap="round" stroke-linejoin="round" stroke-width="0.5"><title>2018-04-15 9.9km</title></polyline><polyline fill="none" points="34.731798271881416,201.91600551118609 32.426960015669465,200.14430211123545 32.49281253735535,203.9187954615336 22.878344383789226,207.0 21.429588908329606,198.98884104704484 38.09027687367052,190.90056219231337 43.29262607987039,189.12883195606992 44.280413903994486,189.74508644099114 44.873086598468944,184.5839390034089 37.56345670064911,162.8604989767191 42.89751095022075,159.08579250844195 58.570411091670394,153.0 57.25336065958254,155.0799601310282 47.24377737590112,159.85614235856337 48.95594293763861,167.79069832281675 50.20714084804058,169.1773108660709 52.577831625705585,168.79214098036755 53.829029536107555,167.3284935541451 51.91930640954524,159.93317729892442 50.075435804901645,158.16137161111692 46.84866224625148,159.6250374893425 48.95594293763861,167.7136642150581 50.33884589117952,169.10027690522838 53.03879927680828,168.63807296886807 54.026587100932375,165.32560282829218 51.65589632326737,159.3168975491426 48.626680329674855,158.3924769454752 46.782809724798426,160.85759594390402 47.24377737590112,164.24712092150003 49.219353024382144,167.63663009909214 52.11686397437006,168.86917497380637 53.89488205779344,167.02035687840544 51.91930640954524,159.93317729892442 49.680320675252005,158.08433648291975 47.83645007060841,158.16137161111692 46.782809724798426,161.936082877859 48.95594293763861,167.55959597509354 50.6681084993761,169.10027690522838 52.31442153919488,168.9462089590961 54.55340727372095,166.712220072106 52.51197910425253,160.47242165129865 49.021795459324494,158.23840673064115 46.782809724798426,159.70207245403435 46.65110468142666,161.31980482582003 49.61446815356612,168.1758687387337 51.85345388809219,168.9462089590961 54.28999718744308,166.4040831354214 52.70953666907735,160.01021223096177 48.824237894732505,158.08433648291975 46.58525216020644,159.4709675355116 48.89009041595273,167.63663009909214 51.59004380181432,169.0232429364114 53.96073457947932,166.94332268915605 52.11686397437006,160.01021223096177 49.08764798077755,158.23840673064115 47.24377737590112,159.00875747861573 46.84866224625148,160.39538676821394 48.09986015688628,165.8648431818001 49.74617319693789,168.32993684825487 51.59004380181432,168.9462089590961 53.56561944982968,167.94476651382865 54.15829214407131,164.94043090217747 52.11686397437006,159.77910741063533 48.824237894732505,158.08433648291975 46.519399638520554,161.55090915650362 49.219353024382144,168.32993684825487 52.64368414715864,168.86917497380637 54.026587100932375,165.94187748525292 51.3924862369895,159.4709675355116 49.81202571862377,158.16137161111692 47.24377737590112,159.08579250844195 46.71695720334537,160.31835187709657 49.219353024382144,167.86773242236814 51.3924862369895,169.25434481876437 53.17050431994721,168.25290279765613 54.224144665757194,165.8648431818001 51.59004380181432,159.4709675355116 48.16571267833933,158.3924769454752 46.58525216020644,160.85759594390402 48.89009041595273,167.63663009909214 52.11686397437006,169.10027690522838 53.89488205779344,166.86628849158296 52.775389190763235,161.01166560407728 49.35105806728825,158.3154418421327 47.309629897587,159.00875747861573 46.84866224625148,160.47242165129865 48.824237894732505,167.94476651382865 51.85345388809219,169.0232429364114 54.15829214407131,166.86628849158296 52.51197910425253,159.00875747861573 49.219353024382144,157.85323105048155 46.58525216020644,160.7035262514837 49.41691058897413,168.40697089064633 52.05101145268418,169.0232429364114 53.96073457947932,164.47822432173416 51.326633715070784,159.00875747861573 47.90230259206146,158.46951204055222 46.65110468142666,161.01166560407728 49.94373076152988,168.86917497380637 52.70953666907735,168.79214098036755 54.28999718744308,165.32560282829218 51.98515893146396,159.39393254637253 48.429122765082866,158.62358220666647 46.519399638520554,160.85759594390402 48.89009041595273,167.48256184300408 52.44612658233382,169.10027690522838 54.026587100932375,164.786362074723 50.6681084993761,158.3924769454752 48.49497528630309,158.23840673064115 46.71695720334537,160.5494565262925 48.36327024316415,167.3284935541451 51.3924862369895,169.0232429364114 53.96073457947932,166.17298034700798 51.06322362902574,158.7776523399516 49.021795459324494,158.3924769454752 46.84866224625148,161.24277003266616 48.824237894732505,167.1744252325152 51.78760136663914,168.9462089590961 54.026587100932375,166.3270488807466 51.524191279895604,159.16282753035193 48.09986015688628,158.85468739410862 47.24377737590112,162.32125639525475 49.877878240076825,168.40697089064633 52.64368414715864,168.32993684825487 53.96073457947932,165.5567058856832 51.26078119361773,158.85468739410862 47.90230259206146,158.62358220666647 46.65110468142666,161.55090915650362 49.219353024382144,167.79069832281675 51.26078119361773,168.86917497380637 52.90709423390217,168.32993684825487 53.96073457947932,166.4040831354214 51.3924862369895,159.16282753035193 48.49497528630309,158.3154418421327 46.782809724798426,161.1657352311886 49.021795459324494,167.55959597509354 51.78760136663914,168.86917497380637 53.96073457947932,166.3270488807466 51.26078119361773,158.85468739410862 48.75838537281379,158.16137161111692 46.84866224625148,160.93463077780325 48.824237894732505,167.09739105944755 51.524191279895604,168.9462089590961 53.96073457947932,166.712220072106 51.129076150245965,158.7776523399516 48.69253285112791,158.16137161111692" stroke="#4dd2ff" stroke-linecap="round" stroke-linejoin="round" stroke-width="0.5"><title>2018-03-31 9.7km</title></polyline><polyline fill="none" points="85.79611764824949,204.96233570482582 84.18813096662052,206.68651355081238 82.24514706013724,207.0 80.50316148856655,200.96536251937505 81.03915704926476,199.71140569786076 85.32712153252214,198.61419173586182 102.07698279712349,189.52292774355737 103.48397114290856,190.14991505333455 106.90094284061342,188.81756638473598 103.61797003308311,184.35026216332335 99.73200221988373,185.13400169712259 95.24303940078244,184.03676611732226 94.43904606043361,183.09627718257252 96.78402663744055,183.7232699386659 97.05202441755682,180.11805433529662 94.03704939014278,176.042572064267 107.36993895634077,155.8999550100416 111.52390454965644,156.5269708148553 116.21386570367031,153.0 119.49683851143345,153.0 112.93089289614,155.9783320145798 112.05990011012182,157.85937763558468 107.97293396200985,158.09450800163904 106.56594561552629,159.50528863008367 106.29794783541001,162.0133364381618 108.70992785738781,167.3429097989574 109.98291731369682,168.4401701366296 112.46189678041264,168.4401701366296 113.66788679151796,165.30513628263725 110.45191342872567,158.40801504068077 108.17393229692243,157.85937763558468 106.16394894523546,160.05392481462331 108.77692730282433,167.6564129187027 111.38990565971471,168.36179445229936 113.6008873465471,166.0105200582766 110.9209095442202,158.9566520387889 107.90593451657332,157.93775443261256 106.16394894523546,160.36743102333276 108.30793118709698,166.87265487021068 110.1839156486094,168.59692148066824 111.99290066538379,168.20504305849317 113.26589012122713,165.2267602661741 110.11691620363854,158.09450800163904 107.57093729148619,158.48639177938458 106.36494728038087,161.5430781217874 109.71491953311488,167.96991590538528 112.12689955532551,167.8131644287496 113.46688845637254,165.7753922076663 111.1889073245693,158.8782753497362 108.03993340674788,157.93775443261256 106.36494728038087,160.36743102333276 108.84392674732953,167.57803715125192 111.72490288480185,168.36179445229936 113.5338879013434,165.6970162410289 111.38990565971471,159.58366525295423 108.24093174189329,157.85937763558468 106.90094284061342,158.6431452325778 106.36494728038087,160.9944430416217 108.77692730282433,167.3429097989574 112.32789789047092,167.8131644287496 113.33288956643082,164.91325611702632 110.9209095442202,158.79989865241805 107.90593451657332,157.7810008303495 106.09694950049743,160.75931359705282 108.64292841218412,167.42128559126286 111.72490288480185,168.4401701366296 113.6008873465471,165.6970162410289 111.25590676954016,157.85937763558468 110.51891287369654,156.76210160460323 107.83893507160246,157.7810008303495 106.23094839043915,159.89717166073387 108.57592896721326,167.26453399838647 111.65790343959816,168.59692148066824 113.46688845637254,165.7753922076663 110.98790898942389,158.9566520387889 109.84891842352226,157.7810008303495 107.36993895634077,158.09450800163904 106.29794783541001,161.5430781217874 109.37992230802774,167.8131644287496 111.99290066538379,168.28341875958722 113.6008873465471,165.46188829105813 110.8539100990165,158.40801504068077 107.23594006616622,158.2512615378946 106.36494728038087,161.22957241145195 109.31292286305688,167.8131644287496 111.9259012201801,168.20504305849317 113.39988901116885,165.6970162410289 110.51891287369654,158.17288477398688 107.43693840131164,158.17288477398688 106.43194672558457,160.6809370990377 108.24093174189329,166.87265487021068 112.19389900029637,168.36179445229936 113.46688845637254,165.30513628263725 110.71991120884195,158.48639177938458 107.23594006616622,157.93775443261256 106.29794783541001,161.22957241145195 108.64292841218412,167.42128559126286 111.59090399486013,168.59692148066824 113.5338879013434,165.46188829105813 111.12190787936561,158.79989865241805 107.7719356266316,157.702624016325 106.4989461703226,158.56476851011394 106.09694950049743,161.30794885160867 108.77692730282433,167.42128559126286 111.99290066538379,168.67529714020202 113.6008873465471,165.14838424144546 111.38990565971471,159.11340539203957 108.70992785738781,157.54587036406156 106.09694950049743,159.11340539203957 106.63294506072998,163.11060468043434 108.84392674732953,167.96991590538528 110.1839156486094,168.67529714020202 112.05990011012182,168.59692148066824 113.5338879013434,166.87265487021068 112.26089844526723,160.21067793568363 109.1789239726495,157.62424719450064 107.03494173125364,158.2512615378946 105.96295060985722,160.13230137928622 108.4419300770387,167.02940654655686 111.1889073245693,168.83204843453132 113.66788679151796,166.5591514185653 111.1889073245693,158.72152194648515 108.77692730282433,157.62424719450064 106.96794228604995,158.48639177938458 106.09694950049743,160.44580755458446 108.4419300770387,167.3429097989574 112.12689955532551,168.67529714020202 113.66788679151796,165.2267602661741 111.72490288480185,159.97554824181134 109.91591786849312,158.17288477398688 108.17393229692243,157.93775443261256 106.29794783541001,160.6809370990377 108.97792563773692,167.7347886780044 112.19389900029637,168.20504305849317 113.73488623648882,165.85376816609642 111.45690510468557,158.79989865241805 108.10693285195157,157.7810008303495 106.09694950049743,160.75931359705282 109.1789239726495,168.20504305849317 110.78691065404564,168.83204843453132 113.13189123105258,168.0482916314504 113.5338879013434,164.59975183493225 110.45191342872567,158.09450800163904 109.31292286305688,157.4674935255316 106.56594561552629,158.48639177938458 106.23094839043915,162.17008914391045 109.1789239726495,168.20504305849317 113.06489178608172,168.0482916314504 113.8688851268962,165.6186402660678 110.98790898942389,158.48639177938458 107.90593451657332,157.85937763558468 106.02995005529374,160.28905448358273 108.5089295222424,167.26453399838647 109.98291731369682,168.59692148066824 112.32789789047092,168.36179445229936 113.66788679151796,165.2267602661741 110.65291176410392,158.56476851011394 106.7669439506717,158.32963829336222 106.02995005529374,162.56197076267563" stroke="#4dd2ff" stroke-linecap="round" stroke-linejoin="round" stroke-width="0.5"><title>2018-03-22 9.7km</title></polyline><polyline fill="none" points="156.8300331607461,200.51094098505564 153.26382046705112,203.5237255646498 143.8860019017011,207.0 141.44248579675332,199.0431696299347 151.81091899913736,193.48106189945247 167.33054831507616,187.22363999759546 163.83037659688853,182.66573098895606 157.5564838948194,162.27067057305248 159.07542633847333,160.10752464801772 178.55751420324668,153.0 178.49147322727367,154.31335216370644 173.40631808969192,156.63102668203646 172.61382637987845,158.17613893543603 168.45324490382336,158.09888340043835 167.33054831507616,159.1804601442418 168.58532685553655,165.82439637742937 170.1703102751635,167.91027084900998 172.4817444283981,168.5283065836993 174.0667278477922,165.9016510938527 173.20819516223855,159.4122263804893 169.245736613404,157.78986117907334 167.26450733933598,159.10320471582236 167.0003434359096,160.72556699556299 169.50990051683038,167.98752534447704 171.29300686367787,168.7600698492024 172.5477854043711,168.06477983179502 173.86860492057167,166.5196885308833 174.00068687205203,163.89302580611547 171.16092491219752,158.09888340043835 167.79283514572307,158.63967197277816 167.13242538738996,161.34360881953035 170.1703102751635,168.06477983179502 173.1421541867312,167.7557618333376 174.00068687205203,165.05184876261046 171.35904783965088,158.56241648708237 168.91553173447028,158.17613893543603 167.13242538738996,160.5710564579349 169.9721873474773,167.7557618333376 172.74590833159164,167.60125278524356 174.00068687205203,164.8973391415784 171.29300686367787,157.55809442693135 170.8307200332638,157.7126056033303 167.85887612146325,158.7169274505577 167.19846636336297,162.3479256661376 169.44385954085737,167.98752534447704 173.20819516223855,167.60125278524356 173.93464589607902,165.2836131330696 170.96280198474415,158.56241648708237 168.25512197637,158.33064998063492 167.0663844118826,161.18909841257846 169.31177758937702,166.90596166305477 172.15153954946436,168.29654324462172 173.80256394459866,164.8973391415784 170.96280198474415,158.48516099300468 168.38720392808318,158.09888340043835 166.86826148442924,160.80282225226983 170.23635125067085,168.5283065836993 173.1421541867312,167.7557618333376 174.1988097995054,164.51106494531268 170.1703102751635,157.7126056033303 167.92491709743626,158.40790549077792 166.67013855697587,160.10752464801772 168.05699904891662,165.20635835110443 170.63259710581042,168.37379769911058 173.73652296885848,166.82870705297682 172.28362150094472,159.4122263804893 169.31177758937702,157.78986117907334 167.0003434359096,160.5710564579349 169.7740644197911,167.91027084900998 172.2175805249717,168.7600698492024 173.93464589607902,165.20635835110443 171.02884296048433,157.8671167466673" stroke="#4dd2ff" stroke-linecap="round" stroke-linejoin="round" stroke-width="0.5"><title>2018-03-17 5.1km</title></polyline><polyline fill="none" points="38.736181201413274,259.68611139105633 23.23777172365226,267.0 21.10923479963094,260.0751498530153 33.74742278596386,252.44995844428195 43.65842283819802,248.87075967009878 35.410342257935554,222.95995276561007 55.23234236217104,213.31125056836754 58.89076520036906,213.0 53.76897322712466,215.56781324441545 52.70470476499759,217.43530814693077 51.041785293025896,216.8906226241961 47.25032889749855,218.9915502719232 49.378865821287036,226.694900232309 50.64268461987376,228.09550063562347 52.5716712072026,228.25112273788545 53.96852356381714,224.593994619383 51.77346986089833,218.83592620771378 50.044033610029146,217.66874467604794 47.44987923372537,218.3690538177034 47.183812118601054,221.5593425690895 49.511899379082024,227.55082301836228 52.172570533817634,228.4067448070855 53.76897322712466,227.08395616762573 54.03504034248181,225.21648579777684 51.839986639562994,219.69185815233504 50.37661750451662,217.97999326593708 48.58066447474994,218.05780539271655 46.91774500301108,220.54778909945162 50.24358394672163,228.01768957229797 52.837738322792575,228.01768957229797 54.10155712161213,224.8274288731045 51.374369187513366,218.75811416323995 48.44763091718778,218.13561751140514 47.050778560573235,220.6256009544013 49.711449715541676,227.3173896301887 52.5716712072026,228.09550063562347 54.10155712161213,225.3721085098805 51.374369187513366,218.44686590327183 48.58066447474994,217.82436898729065 46.78471144544892,219.84748203511117 49.24583226372488,226.85052263108082 52.37212087074295,228.17331169097451 54.10155712161213,225.3721085098805 51.57391952397302,218.60249004990328 49.44538260041736,217.74655683583114 46.98426178190857,219.45842226647073 49.511899379082024,227.00614499713993 51.70695308200084,228.25112273788545 53.3698725537397,227.47301189723657 54.168073900276795,225.5277311889804 51.64043630287051,219.3806102880626 50.24358394672163,217.82436898729065 48.713698032544926,217.97999326593708 47.11729533970356,220.00310588494176 49.24583226372488,226.61708902037935 52.5716712072026,227.93987850059057 54.10155712161213,224.67180604540044 51.70695308200084,218.13561751140514 48.381114138290286,217.66874467604794 46.718194666318595,220.08091779757524 49.97751683113165,227.7842563324375 53.03728865948506,227.86206742055947 54.23459067917429,225.06086305261124 51.507402745308354,217.74655683583114 48.91324836947024,217.59093250799924 46.718194666318595,220.70341280085267 49.378865821287036,227.08395616762573 50.842234956566244,228.25112273788545 52.97077188035473,227.93987850059057 54.30110745807178,225.683353835484 51.44088596641086,217.66874467604794 48.2480805804953,217.90218113077572 46.58516110875644,220.46997723646928 49.11279870592989,226.92833381833043 51.97302019759081,228.3289337765891 54.168073900276795,225.138674429385 52.77122154389508,218.68030211067526 51.90650341869332,216.57937357277842 51.507402745308354,217.59093250799924" stroke="#4dd2ff" stroke-linecap="round" stroke-linejoin="round" stroke-width="0.5"><title>2018-03-03 5.5km</title></polyline></svg>