<?xml version="1.0" encoding="utf-8" ?>
<svg baseProfile="full" height="200mm" version="1.1" viewBox="0,0,200,200" width="200mm" xmlns="http://www.w3.org/2000/svg" xmlns:ev="http://www.w3.org/2001/xml-events" xmlns:xlink="http://www.w3.org/1999/xlink"><defs /><rect fill="#1a1a1a" height="200" width="200" x="0" y="0" /><text alignment-baseline="middle" fill="#e1ed5e" style="dominant-baseline: central; font-size:9.0px; font-family:Arial;" text-anchor="middle" x="100.0" y="100.0">2022</text><line stroke="#e1ed5e" stroke-width="0.3" x1="100.0" x2="100.0" y1="15.0" y2="10.0" /><path d="M 100.0 14.0 a86.0,86.0 0 0,1 42.46469731375804,11.215312516191453" fill="none" id="id49" stroke="none" /><text fill="#e1ed5e" style="font-size:6.75px; font-family:Arial;" text-anchor="middle"><textPath startOffset="22.20632615414155" xlink:href="#id49">January</textPath></text><line stroke="#e1ed5e" stroke-width="0.3" x1="143.23703022742887" x2="145.7803849466894" y1="26.81831364943548" y2="22.513508569990506" /><path d="M 143.74570117128098 25.957352633546492 a86.0,86.0 0 0,1 28.547481713284135,27.462654790039103" fill="none" id="id50" stroke="none" /><text fill="#e1ed5e" style="font-size:6.75px; font-family:Arial;" text-anchor="middle"><textPath startOffset="19.985693538727396" xlink:href="#id50">February</textPath></text><line stroke="#e1ed5e" stroke-width="0.3" x1="172.23445277983987" x2="176.4835382374775" y1="55.19839476539836" y2="52.563006222186495" /><path d="M 173.08426987136738 54.67131705675599 a86.0,86.0 0 0,1 12.851231095245387,41.99856678651699" fill="none" id="id51" stroke="none" /><text fill="#e1ed5e" style="font-size:6.75px; font-family:Arial;" text-anchor="middle"><textPath startOffset="22.20632615414155" xlink:href="#id51">March</textPath></text><line stroke="#e1ed5e" stroke-width="0.3" x1="184.98032266829074" x2="189.97916517819016" y1="98.17113171792111" y2="98.06355123074" /><path d="M 185.9800911702706 98.14961562048488 a86.0,86.0 0 0,1 -9.607161424134198,41.387399972396054" fill="none" id="id52" stroke="none" /><text fill="#e1ed5e" style="font-size:6.75px; font-family:Arial;" text-anchor="middle"><textPath startOffset="21.466115282336823" xlink:href="#id52">April</textPath></text><line stroke="#e1ed5e" stroke-width="0.3" x1="174.80103733775053" x2="179.2010983576182" y1="140.37084112569926" y2="142.7455964860345" /><path d="M 175.68104954172406 140.8457921977663 a86.0,86.0 0 0,1 -30.038265399797805,32.042727171017184" fill="none" id="id53" stroke="none" /><text fill="#e1ed5e" style="font-size:6.75px; font-family:Arial;" text-anchor="middle"><textPath startOffset="22.206326154141568" xlink:href="#id53">May</textPath></text><line stroke="#e1ed5e" stroke-width="0.3" x1="143.8653032363475" x2="146.44561519142675" y1="172.8068346515853" y2="177.08958963109032" /><path d="M 144.38136562736335 173.6633856474863 a86.0,86.0 0 0,1 -40.68145358897372,12.25698825130547" fill="none" id="id54" stroke="none" /><text fill="#e1ed5e" style="font-size:6.75px; font-family:Arial;" text-anchor="middle"><textPath startOffset="21.466115282336833" xlink:href="#id54">June</textPath></text><line stroke="#e1ed5e" stroke-width="0.3" x1="102.19456741930631" x2="102.32365962044197" y1="184.97166512339345" y2="189.96999836594603" /><path d="M 102.22038585953345 185.97133177190398 a86.0,86.0 0 0,1 -42.740103519485714,-10.115201625700543" fill="none" id="id55" stroke="none" /><text fill="#e1ed5e" style="font-size:6.75px; font-family:Arial;" text-anchor="middle"><textPath startOffset="22.20632615414155" xlink:href="#id55">July</textPath></text><line stroke="#e1ed5e" stroke-width="0.3" x1="58.666819895761336" x2="56.23545636021788" y1="174.27360380694188" y2="178.64263932499728" /><path d="M 58.180547188652646 175.14741091055294 a86.0,86.0 0 0,1 -31.652253787137756,-30.449443065178592" fill="none" id="id56" stroke="none" /><text fill="#e1ed5e" style="font-size:6.75px; font-family:Arial;" text-anchor="middle"><textPath startOffset="22.20632615414155" xlink:href="#id56">August</textPath></text><path d="M 83.50135304334701 112.99209946851258 l -25.67033143346721 20.214475783955393 a53.67401027000166,53.67401027000166 0 0,0 -0.5653488173472261,-0.7307895562087976 l 26.01448706803251 -19.769608233633345" fill="#b7ff1f" stroke="none" /><path d="M 82.6465618267979 111.8261652097733 l -26.905446629314497 18.33574728565149 a53.5592181547126,53.5592181547126 0 0,0 -0.5126303107488792,-0.7663127599756462 l 27.217080045474106 -17.869897611470023" fill="#b8ff1f" stroke="none" /><path d="M 82.44556493220864 111.52570212397912 l -26.684951236892726 17.520518203040645 a52.9226436972006,52.9226436972006 0 0,0 -0.49342839300672975,-0.7658118235539317 l 26.9825844932765 -17.058584779565262" fill="#c1ff1e" stroke="none" /><path d="M 82.05923443525364 110.91462005526583 l -38.790924783275514 23.59922736150155 a66.40549942024184,66.40549942024184 0 0,0 -0.5856937357827983,-0.9816563902127113 l 39.191399394756544 -22.92800887740273" fill="#32ff4e" stroke="none" /><line stroke="#e1ed5e" stroke-width="0.3" x1="26.63291911575756" x2="22.317208475507996" y1="142.92168965132927" y2="145.44649492493687" /><path d="M 25.769776987707644 143.4266507060508 a86.0,86.0 0 0,1 -11.730757126820373,-40.83630448921669" fill="none" id="id57" stroke="none" /><text fill="#e1ed5e" style="font-size:6.75px; font-family:Arial;" text-anchor="middle"><textPath startOffset="21.46611528233685" xlink:href="#id57">September</textPath></text><path d="M 81.02952815118164 109.00673069616217 l -38.952785992703745 18.4938601473623 a64.12009276130529,64.12009276130529 0 0,0 -0.46479550899312155,-1.0011281762215305 l 39.265356118536694 -17.820611903861945" fill="#32ff2f" stroke="none" /><path d="M 80.87730276802145 108.67885076344099 l -41.74557343386537 18.946260429251097 a66.84379658770914,66.84379658770914 0 0,0 -0.4665025866827441,-1.051840179883445 l 42.06551710527939 -18.224871912874956" fill="#33ff54" stroke="none" /><path d="M 80.32549172779594 107.34259656027581 l -50.09715772077534 18.696437688348478 a74.47225443100878,74.47225443100878 0 0,0 -0.43788174526075047,-1.204862500231247 l 50.41156372704132 -17.831327391111113" fill="#3fffbb" stroke="none" /><path d="M 79.97269907076064 106.31721596034903 l -11.34559701474219 3.5787441749865296 a32.89663740268345,32.89663740268345 0 0,0 -0.1656944529417799,-0.5414990592306251 l 11.4055182401901 -3.3829181432038564" fill="#ff0000" stroke="none" /><path d="M 79.67330655649465 105.27499134158121 l -38.46482456495032 9.982027677028947 a60.73894318370051,60.73894318370051 0 0,0 -0.25391390443829437,-1.0142598304260628 l 38.63094978368367 -9.318440007205492" fill="#5aff2a" stroke="none" /><path d="M 79.58551787078972 104.9243191809786 l -61.24344638763086 14.772957542935808 a84.0,84.0 0 0,0 -0.32695773627777935,-1.408525370605703 l 61.4886646898392 -13.716563514981532" fill="#4dd2ff" stroke="none" /><path d="M 79.4281124754447 104.21870165774334 l -41.46409266171754 8.503091232635576 a63.326983601126386,63.326983601126386 0 0,0 -0.20979345207520161,-1.0697322923186818 l 41.6043160467684 -7.788095213248939" fill="#3bff2e" stroke="none" /><path d="M 79.23777060512086 103.15116336523772 l -43.663618419311845 6.626995210379017 a65.1636574457512,65.1636574457512 0 0,0 -0.15876954154481543,-1.1104338037752453 l 43.77122201187326 -5.8744159346233715" fill="#31ff3c" stroke="none" /><path d="M 79.18660465613746 102.79330883721812 l -53.75213629388122 7.213927129545762 a75.2340566506543,75.2340566506543 0 0,0 -0.1612104286912653,-1.2850057330250002 l 53.86834823181933 -6.2876036422333526" fill="#40ffc5" stroke="none" /><path d="M 79.1416061653843 102.43462659150553 l -53.83725239870495 6.2839740846180545 a75.20274971012091,75.20274971012091 0 0,0 -0.13900941259711103,-1.2870545166759806 l 53.93744411280311 -5.3563232460572925" fill="#40ffc4" stroke="none" /><line stroke="#e1ed5e" stroke-width="0.3" x1="15.007084014347285" x2="10.007500721073583" y1="101.09737516637583" y2="101.16192664675087" /><path d="M 14.007167355692545 101.11028546245083 a86.0,86.0 0 0,1 10.666146001902534,-42.60595125391555" fill="none" id="id58" stroke="none" /><text fill="#e1ed5e" style="font-size:6.75px; font-family:Arial;" text-anchor="middle"><textPath startOffset="22.20632615414155" xlink:href="#id58">October</textPath></text><line stroke="#e1ed5e" stroke-width="0.3" x1="26.266209847984243" x2="21.928928074336255" y1="57.711370442889674" y2="55.22380399835377" /><path d="M 25.398753493254645 57.213857153982495 a86.0,86.0 0 0,1 29.58750427330803,-30.492523968695096" fill="none" id="id59" stroke="none" /><text fill="#e1ed5e" style="font-size:6.75px; font-family:Arial;" text-anchor="middle"><textPath startOffset="21.46611528233685" xlink:href="#id59">November</textPath></text><line stroke="#e1ed5e" stroke-width="0.3" x1="56.762969772571076" x2="54.21961505331055" y1="26.818313649435495" y2="22.513508569990535" /><path d="M 56.25429882871897 25.957352633546506 a86.0,86.0 0 0,1 42.265352541879196,-11.944610805530505" fill="none" id="id60" stroke="none" /><text fill="#e1ed5e" style="font-size:6.75px; font-family:Arial;" text-anchor="middle"><textPath startOffset="22.20632615414155" xlink:href="#id60">December</textPath></text></svg>